# Blender v2.82 (sub 7) OBJ File: ''
# www.blender.org
o Cube
v 1.574615 1.277289 -1.894940
v 0.851008 2.724509 -1.369215
v 1.851004 2.724509 -1.044291
v 2.298223 1.830070 -2.420665
v 1.298227 1.830070 -2.745589
v 0.680189 1.830074 -1.894940
v 1.298227 1.830070 -1.044291
v 2.298223 1.830070 -1.369215
v 1.149293 3.127944 -2.203951
v 1.149293 3.127944 -1.585928
v 1.737071 3.127944 -2.394935
v 1.737071 3.127944 -1.394945
v 2.100345 3.127941 -1.894940
v 0.986830 2.277289 -1.085923
v 1.311747 2.803027 -2.703952
v 2.262805 2.803026 -2.394937
v 0.986830 2.277289 -2.703957
v 1.311747 2.803027 -1.085928
v 0.723968 2.803025 -1.894940
v 2.162401 2.277289 -1.085923
v 1.574615 2.277289 -2.894940
v 2.262805 2.803026 -1.394943
v 1.574615 2.277289 -0.894940
v 0.623558 2.277289 -2.203953
v 2.162401 2.277289 -2.703957
v 0.623558 2.277289 -1.585927
v 1.837484 1.751552 -2.703952
v 1.837484 1.751552 -1.085928
v 2.425263 1.751554 -1.894940
v 1.999938 1.426635 -1.585928
v 1.999938 1.426635 -2.203951
v 1.412160 1.426635 -1.394945
v 1.048886 1.426638 -1.894940
v 0.886426 1.751553 -1.394943
v 1.412160 1.426635 -2.394935
v 2.525673 2.277289 -1.585927
v 2.525673 2.277289 -2.203953
v 0.886426 1.751553 -2.394937
v 1.574615 3.277289 -1.894940
v 2.469042 2.724505 -1.894940
v 1.851004 2.724509 -2.745589
v 0.851008 2.724509 -2.420665
vt 0.454545 0.000000
vt 0.409090 0.078731
vt 0.500000 0.078731
vt 0.727272 0.157461
vt 0.681818 0.078731
vt 0.636363 0.157461
vt 0.818181 0.000000
vt 0.772726 0.078731
vt 0.863635 0.078731
vt 0.681818 0.236191
vt 0.090909 0.000000
vt 0.045454 0.078731
vt 0.136363 0.078731
vt 0.272727 0.000000
vt 0.227273 0.078731
vt 0.318182 0.078731
vt 0.363636 0.157461
vt 0.454545 0.157461
vt 0.590909 0.078731
vt 0.545454 0.157461
vt 0.590909 0.236191
vt 0.181818 0.157461
vt 0.272727 0.157461
vt 0.090909 0.157461
vt 0.000000 0.157461
vt 0.045454 0.236191
vt 0.818181 0.157461
vt 0.636363 0.314921
vt 0.136363 0.236191
vt 0.318182 0.236191
vt 0.227273 0.236191
vt 0.272727 0.314921
vt 0.772726 0.236191
vt 0.727272 0.314921
vt 0.863635 0.236191
vt 0.818181 0.314921
vt 0.909091 0.314921
vt 0.181818 0.314921
vt 0.772726 0.393651
vt 0.681818 0.393651
vt 0.954545 0.393651
vt 0.863635 0.393651
vt 0.909090 0.472382
vt 0.909090 0.157461
vt 0.363636 0.314921
vt 0.227273 0.393651
vt 0.136363 0.393651
vt 0.181818 0.472382
vt 0.954545 0.236191
vt 0.090909 0.314921
vt 0.500000 0.236191
vt 0.409090 0.236191
vt 1.000000 0.314921
vt 0.545454 0.314921
vt 0.454545 0.314921
vt 0.727272 0.472382
vt 0.409090 0.393651
vt 0.500000 0.393651
vt 0.636363 0.000000
vt 0.590909 0.393651
vt 0.545454 0.472382
vt 0.318182 0.393651
vt 0.363636 0.472382
vn 0.1024 -0.9435 -0.3151
vn 0.7002 -0.6617 0.2680
vn 0.1024 -0.9435 0.3151
vn 0.9050 -0.3304 0.2680
vn -0.2680 -0.9435 0.1947
vn -0.2680 -0.9435 -0.1947
vn -0.0385 -0.6617 -0.7488
vn 0.1876 -0.7947 -0.5773
vn 0.7002 -0.6617 -0.2680
vn 0.9822 -0.1876 0.0000
vn -0.7240 -0.6617 -0.1947
vn -0.5746 -0.3304 0.7488
vn 0.4713 -0.6617 -0.5831
vn 0.4713 -0.6617 0.5831
vn 0.9921 0.1256 0.0000
vn -0.4911 -0.7947 -0.3568
vn -0.7947 -0.1876 0.5773
vn -0.8026 0.1256 -0.5831
vn 0.7947 0.1876 0.5773
vn -0.0247 0.3304 0.9435
vn -0.9050 0.3304 -0.2680
vn 0.4911 0.7947 0.3568
vn -0.1024 0.9435 0.3151
vn 0.0247 -0.3304 0.9435
vn -0.5346 0.3304 -0.7779
vn -0.3313 0.9435 0.0000
vn -0.8897 -0.3304 0.3151
vn -0.3035 0.1876 0.9342
vn -0.6071 0.7947 0.0000
vn -0.5746 -0.3304 -0.7488
vn 0.5746 0.3304 0.7488
vn -0.7002 0.6617 0.2680
vn 0.5346 -0.3304 -0.7779
vn 0.0247 -0.3304 -0.9435
vn -0.1876 0.7947 0.5773
vn 0.8026 -0.1256 0.5831
vn 0.0385 0.6617 0.7488
vn 0.7240 0.6617 0.1947
vn 0.8026 -0.1256 -0.5831
vn -0.3035 0.1876 -0.9342
vn -0.9822 0.1876 0.0000
vn -0.3066 -0.1256 0.9435
vn -0.5346 0.3304 0.7779
vn 0.8897 0.3304 -0.3151
vn -0.9921 -0.1256 0.0000
vn 0.5746 0.3304 -0.7488
vn 0.8897 0.3304 0.3151
vn -0.3066 -0.1256 -0.9435
vn 0.3035 -0.1876 -0.9342
vn -0.7947 -0.1876 -0.5773
vn 0.4089 0.6617 0.6284
vn 0.2680 0.9435 0.1947
vn -0.9050 0.3304 0.2680
vn -0.4713 0.6617 0.5831
vn 0.5346 -0.3304 0.7779
vn 0.7947 0.1876 -0.5773
vn -0.7002 0.6617 -0.2680
vn -0.4911 -0.7947 0.3568
vn 0.3066 0.1256 -0.9435
vn 0.0385 0.6617 -0.7488
vn -0.0385 -0.6617 0.7488
vn -0.8897 -0.3304 -0.3151
vn 0.4089 0.6617 -0.6284
vn 0.3313 -0.9435 0.0000
vn -0.0247 0.3304 -0.9435
vn 0.4911 0.7947 -0.3568
vn -0.8026 0.1256 0.5831
vn 0.3066 0.1256 0.9435
vn 0.2680 0.9435 -0.1947
vn -0.4089 -0.6617 -0.6284
vn -0.7240 -0.6617 0.1947
vn 0.7240 0.6617 -0.1947
vn -0.4089 -0.6617 0.6284
vn 0.9050 -0.3304 -0.2680
vn -0.4713 0.6617 -0.5831
vn 0.1876 -0.7947 0.5773
vn 0.3035 -0.1876 0.9342
vn -0.1024 0.9435 -0.3151
vn 0.6071 -0.7947 0.0000
vn -0.1876 0.7947 -0.5773
s off
f 1/1/1 35/2/1 31/3/1
f 8/4/2 30/5/2 29/6/2
f 1/7/3 30/8/3 32/9/3
f 8/4/4 29/6/4 36/10/4
f 1/11/5 32/12/5 33/13/5
f 1/14/6 33/15/6 35/16/6
f 35/2/7 5/17/7 27/18/7
f 31/3/8 35/2/8 27/18/8
f 29/6/9 31/19/9 4/20/9
f 36/10/10 29/6/10 37/21/10
f 33/15/11 6/22/11 38/23/11
f 34/24/12 7/25/12 14/26/12
f 31/3/13 27/18/13 4/20/13
f 30/8/14 8/4/14 28/27/14
f 36/10/15 37/21/15 40/28/15
f 35/16/16 33/15/16 38/23/16
f 26/29/17 34/24/17 14/26/17
f 17/30/18 24/31/18 42/32/18
f 20/33/19 36/10/19 22/34/19
f 23/35/20 3/36/20 18/37/20
f 24/31/21 19/38/21 42/32/21
f 12/39/22 22/34/22 13/40/22
f 10/41/23 12/42/23 39/43/23
f 7/44/24 28/27/24 23/35/24
f 17/30/25 42/32/25 15/45/25
f 9/46/26 10/47/26 39/48/26
f 6/22/27 34/24/27 26/29/27
f 14/49/28 23/35/28 18/37/28
f 9/46/29 19/38/29 10/47/29
f 5/17/30 38/23/30 17/30/30
f 20/33/31 22/34/31 3/36/31
f 19/38/32 2/50/32 10/47/32
f 4/20/33 27/18/33 25/51/33
f 27/18/34 5/17/34 21/52/34
f 10/41/35 18/37/35 12/42/35
f 8/4/36 36/10/36 20/33/36
f 18/37/37 3/36/37 12/42/37
f 22/34/38 40/28/38 13/40/38
f 4/20/39 25/51/39 37/21/39
f 21/52/40 17/30/40 15/45/40
f 24/31/41 26/29/41 19/38/41
f 7/44/42 23/35/42 14/49/42
f 14/49/43 18/37/43 2/53/43
f 37/21/44 16/54/44 40/28/44
f 6/22/45 26/29/45 24/31/45
f 25/51/46 41/55/46 16/54/46
f 36/10/47 40/28/47 22/34/47
f 5/17/48 17/30/48 21/52/48
f 25/51/49 27/18/49 21/52/49
f 17/30/50 38/23/50 24/31/50
f 3/36/51 22/34/51 12/39/51
f 12/39/52 13/40/52 39/56/52
f 26/29/53 2/50/53 19/38/53
f 2/53/54 18/37/54 10/41/54
f 28/27/55 8/4/55 20/33/55
f 37/21/56 25/51/56 16/54/56
f 42/32/57 19/38/57 9/46/57
f 33/13/58 32/12/58 34/24/58
f 25/51/59 21/52/59 41/55/59
f 41/55/60 15/45/60 11/57/60
f 32/9/61 28/27/61 7/44/61
f 38/23/62 6/22/62 24/31/62
f 16/54/63 41/55/63 11/58/63
f 30/5/64 1/59/64 31/19/64
f 21/52/65 15/45/65 41/55/65
f 13/60/66 16/54/66 11/58/66
f 26/29/67 14/26/67 2/50/67
f 23/35/68 20/33/68 3/36/68
f 13/60/69 11/58/69 39/61/69
f 35/16/70 38/23/70 5/17/70
f 33/13/71 34/24/71 6/22/71
f 40/28/72 16/54/72 13/60/72
f 32/12/73 7/25/73 34/24/73
f 29/6/74 4/20/74 37/21/74
f 15/45/75 42/32/75 9/62/75
f 32/9/76 30/8/76 28/27/76
f 23/35/77 28/27/77 20/33/77
f 11/57/78 9/62/78 39/63/78
f 29/6/79 30/5/79 31/19/79
f 11/57/80 15/45/80 9/62/80
