# Blender v2.82 (sub 7) OBJ File: ''
# www.blender.org
o Cube
v 1.105912 3.387261 -3.608000
v 3.107810 3.416778 -2.417696
v 2.939366 3.896561 -1.605055
v 0.491255 0.499773 -1.890377
v 0.428570 3.957332 -1.606958
v -0.688891 2.041900 -1.491343
v 0.398369 4.327198 -2.372516
v 1.406250 0.324084 -1.176390
v 1.681542 3.647522 -0.924970
v 1.624026 -3.591505 -2.068907
v 1.858565 4.011541 -2.962351
v 0.247604 1.482533 -2.820832
v 1.568910 2.208709 -4.038333
v 1.167866 3.264977 0.309785
v -0.139116 3.272048 -1.875049
v 1.566418 2.242059 0.162800
v 3.059013 3.341477 -0.795286
v 0.274779 2.130672 -0.433084
v 0.401097 1.889857 -3.273863
v 3.560296 2.014573 -0.904800
v 2.999183 2.326199 -0.122804
v 3.595763 2.076000 -2.503762
v 1.332065 4.369207 -1.623423
v 3.590834 3.247769 -2.095150
v -0.767887 1.842666 -2.660366
v 2.733788 2.428952 -3.621859
v 2.254748 0.978780 -3.517321
v 0.545138 1.259073 -0.424283
v 2.114089 3.247820 -3.601215
v 1.243507 0.620923 -2.845661
v 0.099029 3.209102 -2.970371
v -0.253065 3.461899 -0.645414
v 2.087621 3.331088 -0.106654
v 2.478871 0.461099 -1.266185
v 3.552509 1.104012 -1.772874
v 3.063262 1.340365 -2.959403
v 0.785198 1.278549 -3.370091
v 2.254259 0.493334 -2.636746
v -0.053965 0.944906 -1.965028
v 2.423311 1.358399 -0.516236
v 0.968670 1.176173 -0.049063
v 3.132084 1.431591 -0.989922
v 2.558473 -3.645886 -3.068140
v 2.694820 -3.488124 -0.983921
v 1.313095 -3.540051 -0.654912
v 0.246316 -3.657670 -1.914532
v 0.906125 -3.545519 -3.289528
v 1.852113 -1.362952 -2.212536
v 1.931428 -1.360215 -1.663682
v 1.494491 -1.401976 -1.575292
v 1.130674 -1.365839 -1.893199
v 1.412486 -1.319985 -2.293838
v 1.465467 -2.440854 -1.466106
v 1.038654 -2.481746 -1.923071
v 1.326542 -2.433674 -2.444456
v 1.935492 -2.464904 -2.353439
v 2.003855 -2.423277 -1.587717
v 1.978302 -0.436829 -2.350341
v 2.104205 -0.446676 -1.544312
v 1.469089 -0.519623 -1.460975
v 0.932493 -0.436225 -1.899495
v 1.363578 -0.366525 -2.471830
vt 0.500000 0.236191
vt 0.409090 0.236191
vt 0.454545 0.314921
vt 0.454545 0.157461
vt 0.318182 0.078731
vt 0.227273 0.078731
vt 0.272727 0.157461
vt 0.545454 0.314921
vt 0.500000 0.393651
vt 0.590909 0.393651
vt 0.363636 0.157461
vt 0.863635 0.236191
vt 0.818181 0.314921
vt 0.909091 0.314921
vt 0.863635 0.078731
vt 0.818181 0.157461
vt 0.909090 0.157461
vt 0.500000 0.078731
vt 0.545454 0.157461
vt 0.954545 0.393651
vt 0.863635 0.393651
vt 0.909090 0.472382
vt 0.954545 0.236191
vt 0.659090 0.039365
vt 0.636363 0.000000
vt 0.613636 0.039365
vt 0.636363 0.314921
vt 0.772726 0.236191
vt 0.727272 0.314921
vt 0.409090 0.393651
vt 0.363636 0.314921
vt 0.318182 0.393651
vt 0.318182 0.236191
vt 0.312500 0.068889
vt 0.232954 0.068889
vt 0.590909 0.236191
vt 0.778408 0.068889
vt 0.857954 0.068889
vt 0.727272 0.157461
vt 0.681818 0.078731
vt 0.636363 0.157461
vt 0.681818 0.236191
vt 0.045454 0.078731
vt 0.130682 0.068889
vt 0.051136 0.068889
vt 0.363636 0.472382
vt 0.272727 0.314921
vt 0.000000 0.157461
vt 0.090909 0.157461
vt 0.181818 0.157461
vt 0.136363 0.236191
vt 0.227273 0.236191
vt 0.772726 0.393651
vt 0.414772 0.068889
vt 0.494318 0.068889
vt 0.181818 0.314921
vt 0.227273 0.393651
vt 0.136363 0.393651
vt 0.181818 0.472382
vt 0.090909 0.314921
vt 0.045454 0.236191
vt 0.136363 0.078731
vt 0.590909 0.078731
vt 0.772726 0.078731
vt 0.681818 0.393651
vt 1.000000 0.314921
vt 0.409090 0.078731
vt 0.727272 0.472382
vt 0.545454 0.472382
vt 0.454545 0.000000
vt 0.431818 0.039365
vt 0.477272 0.039365
vt 0.090909 0.000000
vt 0.068182 0.039365
vt 0.113636 0.039365
vt 0.818181 0.000000
vt 0.795454 0.039365
vt 0.840908 0.039365
vt 0.272727 0.000000
vt 0.250000 0.039365
vt 0.295454 0.039365
vt 0.607954 0.049207
vt 0.664772 0.049207
vt 0.670454 0.059048
vt 0.596590 0.068889
vt 0.676136 0.068889
vt 0.426136 0.049207
vt 0.488636 0.059048
vt 0.482954 0.049207
vt 0.062500 0.049207
vt 0.125000 0.059048
vt 0.119318 0.049207
vt 0.789772 0.049207
vt 0.852272 0.059048
vt 0.846590 0.049207
vt 0.238636 0.059048
vt 0.301136 0.049207
vt 0.244318 0.049207
vt 0.602272 0.059048
vt 0.420454 0.059048
vt 0.056818 0.059048
vt 0.784090 0.059048
vt 0.306818 0.059048
vn 0.2863 0.2400 -0.9276
vn 0.3617 -0.1853 -0.9137
vn -0.5643 -0.6371 -0.5251
vn 0.5422 0.6384 -0.5463
vn 0.5228 0.7771 -0.3504
vn -0.6192 -0.7059 -0.3440
vn 0.4106 0.0290 0.9114
vn 0.2957 -0.7034 0.6464
vn 0.5868 -0.7093 -0.3907
vn -0.2612 0.6030 0.7538
vn 0.6307 0.4924 -0.5998
vn -0.3829 -0.2759 0.8816
vn 0.0212 -0.9970 0.0741
vn 0.0794 0.9424 0.3250
vn 0.5113 0.7822 -0.3559
vn 0.5123 0.4530 0.7296
vn -0.0909 0.7668 -0.6354
vn -0.5612 0.0803 -0.8238
vn -0.7312 -0.3389 -0.5920
vn 0.7578 -0.1562 -0.6335
vn -0.4223 0.0570 0.9047
vn 0.1583 -0.3050 0.9391
vn 0.6038 -0.5662 0.5611
vn 0.5827 -0.5193 0.6251
vn -0.6323 -0.2895 0.7186
vn 0.0959 0.6574 -0.7474
vn -0.1821 -0.4679 -0.8648
vn 0.0563 0.3619 -0.9305
vn 0.1248 0.9697 -0.2100
vn 0.1991 -0.4684 0.8608
vn -0.5424 0.0684 -0.8373
vn -0.4982 -0.7737 0.3914
vn 0.4983 -0.5641 0.6584
vn 0.1846 0.1519 0.9710
vn -0.8268 -0.5426 0.1483
vn 0.1840 0.9440 0.2738
vn -0.7292 -0.3673 -0.5773
vn 0.6252 -0.5413 0.5622
vn 0.1465 -0.3305 -0.9324
vn -0.7108 -0.5820 0.3951
vn -0.9074 0.3595 -0.2179
vn -0.3710 0.8304 0.4158
vn -0.7251 0.6673 -0.1702
vn -0.9195 0.3667 -0.1418
vn -0.5235 0.5065 -0.6851
vn -0.7131 -0.2145 0.6674
vn -0.4751 -0.7741 0.4184
vn 0.8298 0.2733 0.4865
vn -0.7200 -0.1785 0.6706
vn -0.5030 -0.1831 -0.8447
vn 0.3259 -0.3568 0.8755
vn 0.6244 -0.2594 -0.7368
vn 0.0607 0.9460 0.3183
vn -0.7895 0.5398 0.2920
vn -0.6713 -0.2010 0.7134
vn 0.5899 -0.7100 -0.3847
vn -0.6156 -0.6903 0.3801
vn 0.9998 -0.0035 0.0220
vn 0.5072 -0.5340 0.6765
vn 0.8883 0.3074 0.3413
vn 0.1321 0.8266 0.5471
vn 0.7961 0.3226 -0.5119
vn -0.1289 0.9158 0.3805
vn -0.3363 -0.6408 -0.6901
vn -0.3518 -0.7318 -0.5837
vn -0.4656 0.0958 -0.8798
vn 0.8394 -0.3500 -0.4158
vn -0.0108 -0.8757 -0.4828
vn -0.2106 -0.6950 -0.6874
vn 0.9994 -0.0286 0.0211
vn 0.4766 -0.8736 -0.0986
vn 0.1443 -0.6293 0.7636
vn -0.9138 0.4061 -0.0075
vn -0.5643 -0.0929 0.8203
vn 0.2073 0.7303 0.6509
vn 0.7745 0.5693 0.2758
vn 0.2807 0.9491 -0.1431
vn 0.5980 0.2662 -0.7560
vn -0.8462 0.4888 -0.2121
vn -0.4646 -0.6668 -0.5826
vn -0.0603 -0.9982 -0.0021
vn 0.0533 -0.9974 0.0480
vn 0.0487 -0.9977 0.0470
vn 0.0410 -0.9973 -0.0617
vn 0.8602 0.4992 -0.1039
vn 0.9743 -0.1641 -0.1542
vn 0.1533 0.1367 -0.9787
vn -0.7320 0.0422 0.6800
vn 0.2163 0.0961 0.9716
vn -0.8755 0.0849 -0.4756
vn -0.7831 0.5252 -0.3329
vn 0.1705 0.5674 0.8056
vn -0.6941 0.4717 0.5438
vn 0.1431 0.5666 -0.8115
vn 0.9881 0.0571 -0.1431
vn 0.9288 -0.3343 -0.1601
vn 0.1635 -0.1670 -0.9723
vn -0.6601 -0.1152 0.7423
vn 0.2078 -0.1198 0.9708
vn -0.7960 -0.1736 -0.5798
vn -0.7244 -0.3194 -0.6109
vn 0.1211 -0.3362 0.9340
vn -0.6220 -0.3002 0.7232
vn 0.1502 -0.3340 -0.9305
vn 0.8558 0.5086 -0.0945
vn 0.9780 -0.1542 -0.1406
vn 0.1916 0.1170 -0.9745
vn -0.6494 0.0974 0.7542
vn 0.1900 0.0829 0.9783
vn -0.8174 0.1387 -0.5591
vn -0.7475 0.5573 -0.3614
vn 0.1631 0.5711 0.8045
vn -0.6523 0.5066 0.5639
vn 0.1504 0.5616 -0.8137
vn 0.9918 0.0870 -0.0933
vn 0.9343 -0.3233 -0.1499
vn 0.1720 -0.1722 -0.9699
vn -0.6395 -0.1312 0.7575
vn 0.1460 -0.1553 0.9770
vn -0.7803 -0.1532 -0.6064
s off
f 26/1/1 13/2/1 29/3/1
f 26/1/2 27/4/2 13/2/2
f 30/5/3 4/6/3 12/7/3
f 2/8/4 29/3/4 11/9/4
f 3/10/5 2/8/5 11/9/5
f 30/5/6 12/7/6 37/11/6
f 16/12/7 33/13/7 14/14/7
f 8/15/8 40/16/8 41/17/8
f 38/18/9 27/4/9 36/19/9
f 5/20/10 9/21/10 23/22/10
f 26/1/11 29/3/11 2/8/11
f 18/23/12 16/12/12 14/14/12
f 44/24/13 10/25/13 43/26/13
f 14/14/14 33/13/14 9/21/14
f 24/27/15 2/8/15 3/10/15
f 21/28/16 17/29/16 33/13/16
f 11/30/17 1/31/17 7/32/17
f 13/2/18 19/33/18 1/31/18
f 4/6/19 62/34/19 61/35/19
f 36/19/20 26/1/20 22/36/20
f 41/17/21 16/12/21 18/23/21
f 59/37/22 8/15/22 60/38/22
f 42/39/23 34/40/23 35/41/23
f 42/39/24 20/42/24 21/28/24
f 8/43/25 61/44/25 60/45/25
f 29/3/26 1/31/26 11/30/26
f 27/4/27 37/11/27 13/2/27
f 13/2/28 1/31/28 29/3/28
f 11/30/29 7/32/29 23/46/29
f 16/12/30 40/16/30 21/28/30
f 19/33/31 31/47/31 1/31/31
f 8/43/32 41/48/32 28/49/32
f 40/16/33 42/39/33 21/28/33
f 16/12/34 21/28/34 33/13/34
f 39/50/35 6/51/35 25/52/35
f 33/13/36 17/29/36 9/53/36
f 37/11/37 12/7/37 19/33/37
f 42/39/38 35/41/38 20/42/38
f 62/54/39 38/18/39 58/55/39
f 39/50/40 28/49/40 6/51/40
f 31/47/41 15/56/41 7/57/41
f 7/57/42 5/58/42 23/59/42
f 15/56/43 32/60/43 5/58/43
f 6/51/44 32/60/44 15/56/44
f 1/31/45 31/47/45 7/32/45
f 6/51/46 28/49/46 18/61/46
f 4/62/47 8/43/47 28/49/47
f 21/28/48 20/42/48 17/29/48
f 6/51/49 18/61/49 32/60/49
f 37/11/50 19/33/50 13/2/50
f 41/17/51 40/16/51 16/12/51
f 36/19/52 27/4/52 26/1/52
f 5/20/53 14/14/53 9/21/53
f 7/57/54 15/56/54 5/58/54
f 28/49/55 41/48/55 18/61/55
f 35/41/56 38/63/56 36/19/56
f 4/62/57 28/49/57 39/50/57
f 20/42/58 22/36/58 24/27/58
f 34/64/59 42/39/59 40/16/59
f 20/42/60 24/27/60 17/29/60
f 9/53/61 17/29/61 3/65/61
f 22/36/62 26/1/62 2/8/62
f 32/66/63 14/14/63 5/20/63
f 19/33/64 12/7/64 25/52/64
f 12/7/65 39/50/65 25/52/65
f 19/33/66 25/52/66 31/47/66
f 35/41/67 36/19/67 22/36/67
f 38/18/68 30/67/68 27/4/68
f 30/67/69 37/11/69 27/4/69
f 20/42/70 35/41/70 22/36/70
f 35/41/71 34/40/71 38/63/71
f 8/15/72 34/64/72 40/16/72
f 25/52/73 6/51/73 15/56/73
f 18/23/74 14/14/74 32/66/74
f 9/53/75 3/65/75 23/68/75
f 17/29/76 24/27/76 3/65/76
f 3/10/77 11/9/77 23/69/77
f 22/36/78 2/8/78 24/27/78
f 25/52/79 15/56/79 31/47/79
f 4/6/80 39/50/80 12/7/80
f 10/70/81 47/71/81 43/72/81
f 10/73/82 45/74/82 46/75/82
f 10/76/83 44/77/83 45/78/83
f 10/79/84 46/80/84 47/81/84
f 44/24/85 56/82/85 57/83/85
f 49/84/86 58/85/86 59/86/86
f 55/87/87 48/88/87 56/89/87
f 53/90/88 51/91/88 54/92/88
f 57/93/89 50/94/89 53/95/89
f 51/96/90 55/97/90 54/98/90
f 54/98/91 47/81/91 46/80/91
f 57/93/92 45/78/92 44/77/92
f 45/74/93 54/92/93 46/75/93
f 47/71/94 56/89/94 43/72/94
f 57/83/95 48/99/95 49/84/95
f 59/86/96 38/63/96 34/40/96
f 52/100/97 58/55/97 48/88/97
f 60/45/98 51/91/98 50/101/98
f 49/102/99 60/38/99 50/94/99
f 61/35/100 52/103/100 51/96/100
f 4/6/101 30/5/101 62/34/101
f 59/37/102 34/64/102 8/15/102
f 8/43/103 4/62/103 61/44/103
f 62/54/104 30/67/104 38/18/104
f 44/24/105 43/26/105 56/82/105
f 49/84/106 48/99/106 58/85/106
f 55/87/107 52/100/107 48/88/107
f 53/90/108 50/101/108 51/91/108
f 57/93/109 49/102/109 50/94/109
f 51/96/110 52/103/110 55/97/110
f 54/98/111 55/97/111 47/81/111
f 57/93/112 53/95/112 45/78/112
f 45/74/113 53/90/113 54/92/113
f 47/71/114 55/87/114 56/89/114
f 57/83/115 56/82/115 48/99/115
f 59/86/116 58/85/116 38/63/116
f 52/100/117 62/54/117 58/55/117
f 60/45/118 61/44/118 51/91/118
f 49/102/119 59/37/119 60/38/119
f 61/35/120 62/34/120 52/103/120
